/vscmnt/brussel_pixiu_data/_data_brussel/112/vsc11236/PredSimResults/SUBJ11mtu3D/weighted-expIG/worker_05.mot
version=1
nRows=7
nColumns=50
inDegrees=yes
endheader
                time	         pelvis_tilt	         pelvis_list	     pelvis_rotation	           pelvis_tx	           pelvis_ty	           pelvis_tz	       hip_flexion_r	     hip_adduction_r	      hip_rotation_r	        knee_angle_r	       ankle_angle_r	         mtp_angle_r	       hip_flexion_l	     hip_adduction_l	      hip_rotation_l	        knee_angle_l	       ankle_angle_l	         mtp_angle_l	    lumbar_extension	      lumbar_bending	     lumbar_rotation	 ercspn_r/activation	 intobl_r/activation	 extobl_r/activation	    abd_r/activation	    add_r/activation	hamstrings_r/activation	bifemsh_r/activation	glut_max_r/activation	iliopsoas_r/activation	rect_fem_r/activation	  vasti_r/activation	gastroc_r/activation	 soleus_r/activation	tib_ant_r/activation	 ercspn_l/activation	 intobl_l/activation	 extobl_l/activation	    abd_l/activation	    add_l/activation	hamstrings_l/activation	bifemsh_l/activation	glut_max_l/activation	iliopsoas_l/activation	rect_fem_l/activation	  vasti_l/activation	gastroc_l/activation	 soleus_l/activation	tib_ant_l/activation	
          0.72044003	         -5.87286156	          5.05255404	         -8.24767226	          0.69882683	          0.94296568	          0.01809978	        -11.36185558	         -5.41429305	          5.03895427	         -7.23571036	         12.99952185	         25.68079067	         30.34429960	          1.61613331	         -4.06697775	         -4.48793772	          5.26983507	          0.22914387	         -3.61361023	         -3.09987015	          1.98222868	          0.04155123	          0.01000003	          0.01000009	          0.05484982	          0.02901174	          0.02545028	          0.12915319	          0.05594812	          0.45129194	          0.01000026	          0.01000007	          0.35749494	          0.26453458	          0.01000003	          0.07977143	          0.12166417	          0.02648445	          0.01240147	          0.12664786	          0.04545031	          0.16696215	          0.02916063	          0.08604588	          0.01329858	          0.01000011	          0.01001257	          0.01000003	          0.27700576	
          0.73484883	         -6.01352159	          4.85915943	         -8.26422352	          0.71625934	          0.94073170	          0.01716668	        -11.63977463	         -5.28987365	          4.63581912	         -8.45792690	         12.59352995	         27.56675911	         30.39041757	          1.62573604	         -4.03569939	         -6.07892934	          4.86199403	          0.18948247	         -3.30333374	         -3.34793165	          2.16589676	          0.06403949	          0.01000005	          0.01000017	          0.04422850	          0.05926969	          0.02447954	          0.10414353	          0.04511413	          0.45321684	          0.01000038	          0.01000019	          0.32975858	          0.25201127	          0.01000001	          0.06432437	          0.12007047	          0.02135591	          0.01000016	          0.13907259	          0.05364573	          0.13463121	          0.06836847	          0.06938364	          0.01072344	          0.01000007	          0.01713151	          0.01240177	          0.30335895	
          0.74925763	         -6.13217724	          4.65692484	         -8.22863699	          0.73400155	          0.93891614	          0.01613682	        -11.72267170	         -5.14124767	          4.20950255	        -10.09137293	         12.05141471	         29.56317539	         30.22167606	          1.62678330	         -4.02075099	         -7.37512200	          4.30421523	          0.17999581	         -2.98889610	         -3.59969741	          2.32986078	          0.08453105	          0.01000002	          0.01000010	          0.03566394	          0.05337479	          0.02512250	          0.08397684	          0.03637807	          0.44187008	          0.01000048	          0.01322478	          0.29800657	          0.23439827	          0.01000000	          0.07561920	          0.09681961	          0.01722047	          0.07334966	          0.15390050	          0.05683583	          0.10856093	          0.08194890	          0.05594794	          0.01000007	          0.01000001	          0.01381412	          0.01000025	          0.34422821	
          0.76366643	         -6.22807944	          4.44657769	         -8.14319641	          0.75178981	          0.93776380	          0.01501038	        -11.52554837	         -4.96797122	          3.76694185	        -12.23586475	         11.30349400	         31.67854364	         29.91192867	          1.62981195	         -4.04754189	         -8.45565323	          3.67917240	          0.14015499	         -2.69367335	         -3.85541487	          2.46833593	          0.11095996	          0.01000002	          0.01000010	          0.02875784	          0.06233744	          0.02582804	          0.06771531	          0.02933369	          0.41632940	          0.01000046	          0.01240119	          0.24029953	          0.19253592	          0.01000000	          0.08090651	          0.07807111	          0.01388584	          0.11328005	          0.17402724	          0.05201365	          0.08753885	          0.10591302	          0.04511397	          0.01000016	          0.01000031	          0.01217533	          0.01000828	          0.37100080	
          0.77807523	         -6.29873018	          4.23589823	         -8.01189555	          0.76942941	          0.93737330	          0.01380779	        -10.99448466	         -4.77817309	          3.29972795	        -14.95967606	         10.33936089	         33.81587089	         29.53593836	          1.63905274	         -4.12158096	         -9.49179989	          3.23915125	          0.11127490	         -2.43075997	         -4.12413779	          2.57577179	          0.12602040	          0.01000003	          0.01000011	          0.02318907	          0.07978671	          0.03155512	          0.05460276	          0.02365341	          0.37203980	          0.01000017	          0.01000008	          0.19376703	          0.15525255	          0.01000000	          0.07687483	          0.06295314	          0.01119695	          0.12867241	          0.17135753	          0.05165701	          0.07058756	          0.10373188	          0.03637794	          0.01000012	          0.05292733	          0.01000024	          0.01000017	          0.39229938	
          0.79248403	         -6.34344648	          4.02427955	         -7.83815875	          0.78679807	          0.93771799	          0.01255969	        -10.11673472	         -4.57525180	          2.79234898	        -18.25760599	          9.13648573	         35.83771155	         29.07788739	          1.65356416	         -4.21920982	        -10.42042640	          2.90881926	          0.08696903	         -2.20772189	         -4.40550127	          2.64936021	          0.13288613	          0.01000005	          0.01000012	          0.01869865	          0.09419743	          0.03709318	          0.04402957	          0.01907307	          0.31593255	          0.01000007	          0.01000002	          0.15624525	          0.12518886	          0.01000001	          0.07030991	          0.05076267	          0.01000004	          0.13327026	          0.13817529	          0.05339463	          0.05691877	          0.09688603	          0.02933358	          0.01000010	          0.11761468	          0.01000024	          0.01000016	          0.39982248	
          0.80689283	         -6.36375457	          3.80376866	         -7.62610399	          0.80379420	          0.93877687	          0.01130044	         -8.91676359	         -4.36118385	          2.23754991	        -22.04656579	          7.70063530	         37.45711641	         28.50167415	          1.67141445	         -4.28932377	        -11.17250808	          2.72576025	          0.06469072	         -2.03220945	         -4.69130074	          2.68876244	          0.14185437	          0.01000005	          0.01000019	          0.01507778	          0.10855080	          0.02991049	          0.06202056	          0.01537969	          0.25567221	          0.01000004	          0.01000000	          0.12598933	          0.10094682	          0.01000011	          0.05914115	          0.04093281	          0.01000005	          0.13122919	          0.11141852	          0.05065026	          0.04589686	          0.09357684	          0.02365332	          0.01000009	          0.16409394	          0.01000038	          0.01000032	          0.39653757	
